<?xml version="1.0" encoding="utf-8"?>
<!-- Generator: Adobe Illustrator 16.0.0, SVG Export Plug-In . SVG Version: 6.00 Build 0)  -->
<!DOCTYPE svg PUBLIC "-//W3C//DTD SVG 1.1//EN" "http://www.w3.org/Graphics/SVG/1.1/DTD/svg11.dtd">
<svg version="1.1"
	 id="svg9520" xmlns:dc="http://purl.org/dc/elements/1.1/" xmlns:cc="http://creativecommons.org/ns#" xmlns:rdf="http://www.w3.org/1999/02/22-rdf-syntax-ns#" xmlns:svg="http://www.w3.org/2000/svg" xmlns:sodipodi="http://sodipodi.sourceforge.net/DTD/sodipodi-0.dtd" xmlns:inkscape="http://www.inkscape.org/namespaces/inkscape" sodipodi:docname="New document 4" inkscape:version="0.48.0 r9654"
	 xmlns="http://www.w3.org/2000/svg" xmlns:xlink="http://www.w3.org/1999/xlink" x="0px" y="0px" width="444.557px"
	 height="684.6px" viewBox="9.556 0 444.557 684.6" enable-background="new 9.556 0 444.557 684.6" xml:space="preserve">
<sodipodi:namedview  fit-margin-left="0" fit-margin-top="0" showgrid="false" inkscape:cy="30.100305" inkscape:cx="396.34196" inkscape:zoom="0.35" borderopacity="1.0" bordercolor="#666666" pagecolor="#ffffff" id="base" inkscape:window-maximized="0" inkscape:window-y="25" inkscape:window-x="25" inkscape:window-height="425" inkscape:window-width="469" fit-margin-bottom="0" inkscape:current-layer="layer1" inkscape:pageshadow="2" inkscape:document-units="px" inkscape:pageopacity="0.0" fit-margin-right="0">
	</sodipodi:namedview>
<path id="path3913" inkscape:connector-curvature="0" fill="#2F8252" d="M453.601,0H7.481c0.661,25.624,1.36,51.26,0.56,76.873
	c18.471,0.171,63.529-2.889,78.71-35.481c0,0,27.646,37.344,79.38,30.618c0,0,27.215,35.154,43.092,0
	c0,0,32.182,19.215,48.977-23.279c0,0,10.151,40.586,39.555,30.23c0,0,44.146,25.935,49.816-20.559c0,0,38.556,39.69,57.833-5.67
	C405.404,52.732,458.703,65.206,453.601,0"/>
<path id="path3917" inkscape:connector-curvature="0" fill="#658747" d="M402.568,0H7.482c0.579,22.438,1.19,44.884,0.796,67.316
	c11.416-5.295,21.626-13.437,27.442-25.925c0,0,27.646,37.344,79.38,30.618c0,0,27.216,35.154,43.093,0
	c0,0,32.181,19.215,48.976-23.279c0,0,10.151,40.586,39.557,30.23c0,0,44.145,25.935,49.814-20.559c0,0,38.557,39.69,57.834-5.67
	C354.375,52.732,407.673,65.206,402.568,0"/>
<path id="path3921" inkscape:connector-curvature="0" fill="#4D382F" d="M453.332,212.674H10.365
	C10.035,225.279,9.561,237.87,9,250.427V392.6h444.601V220.459C453.419,217.879,453.337,215.283,453.332,212.674"/>
<path id="path3925" inkscape:connector-curvature="0" fill="#4D382F" d="M453.341,212.674c-0.014-2.766,0.14-5.543,0.398-8.309
	c0.082-0.869,0.206-1.725,0.373-2.566l-0.502-101.386l-18.023,44.224c-58.19-92.011-106.058-3.6-106.058-3.6
	c-54.525-95.115-100.67,4.037-100.67,4.037c-57.987-106.605-113.366-2.139-113.366-2.139
	c-42.877-83.906-89.158-31.748-102.613-13.333c-0.893,6.906-1.96,13.795-3.256,20.631c1.506,20.727,1.519,41.589,0.753,62.398
	L453.341,212.674z"/>
<path id="path3929" inkscape:connector-curvature="0" fill="#634B34" d="M400.869,0c0,0-119.07,121.905-176.903,0
	C223.965,0,265.073,135.797,400.869,0"/>
<path id="path3933" inkscape:connector-curvature="0" fill="#634B34" d="M9.48,209.942c-0.028,0.912-0.057,1.822-0.088,2.732h81.895
	c0,0-23.76-72.625-18.595-212.674H37.566C37.566,0,44.612,137.746,9.48,209.942"/>
<path id="path3937" inkscape:connector-curvature="0" fill="#8E6C56" d="M106.029,0c0,0,7.939,141.281-32.319,212.674h91.287
	c0,0-26.082-72.625-20.412-212.674H106.029z"/>
<path id="path3941" inkscape:connector-curvature="0" fill="#634B34" d="M179.739,0c0,0,7.938,141.281-32.319,212.674h91.286
	c0,0-26.083-72.625-20.413-212.674H179.739z"/>
<path id="path3945" inkscape:connector-curvature="0" fill="#8E6C56" d="M259.119,0c0,0,7.938,141.281-32.319,212.674h91.286
	c0,0-26.08-72.625-20.41-212.674H259.119z"/>
<path id="path3949" inkscape:connector-curvature="0" fill="#AC7D66" d="M321.489,0c0,0,7.938,141.281-32.318,212.674h91.286
	c0,0-26.082-72.625-20.411-212.674H321.489z"/>
<path id="path3953" inkscape:connector-curvature="0" fill="#8E6C56" d="M453.326,212.674c-0.004-0.813,0.006-1.629,0.031-2.445
	C449,196.534,428.683,125.226,433.755,0h-38.559c0,0,7.941,141.281-32.316,212.674H453.326z"/>
<path id="path3957" inkscape:connector-curvature="0" fill="#295D52" d="M131.221,212.639c-0.084-4.488,2.995-6.32,3.842-9.678
	c0.77-3.057-0.562-6.352,0.809-9.146c3.632-7.398,11.51-15.027,20.087-13.529c3.163,0.553,5.552-0.037,8.666-0.17
	c2.846-0.121,4.924,1.499,7.598,2.141c5.415,1.299,11.065,0.532,16.554,1.205c2.651,0.324,5.649,0.896,7.894,2.447
	c1.904,1.314,2.515,4.119,4.952,4.684c1.317,0.305,2.441-0.316,3.751-0.127c1.299,0.19,2.579,1.648,3.931,1.399
	c5.174-0.95,2.901-5.986,3.34-9.576c0.259-2.118,0.929-4.22,2.405-5.827c2.86-3.11,8.655-4.445,12.391-6.078
	c2.256-0.986,4.053-0.554,6.172,0.53c4.617,2.362,7.744,1.048,12.326,0.375c2.842-0.419,5.338,0.063,7.805,1.286
	c1.969,0.975,3.84,1.188,6.043,1.446c1.967,0.231,3.988,0.444,5.771,1.294c2.416,1.15,3.158,1.783,4.184,4.171
	c0.34,0.792,0.534,1.75,1.25,2.478c0.927,0.939,2.484,1.006,3.318,1.991c1.46,1.728,0.65,4.455,2.179,6.356
	c0.681,0.846,2.558,1.1,3.438,2.123c0.998,1.156,1.533,2.739,1.929,4.188c3.325-0.24,5.386,1.732,6.329,4.785
	c2.8-0.742,4.119-3.57,5.898-5.561c0.75-0.839,1.535-1.878,2.646-2.238c0.421-0.136,3.871-0.277,3.637,0.541
	c0.658-2.303,2.701-3.307,4.572-4.48c2.654-1.665,3.346-0.82,6.191-1.232c1.604-0.232,2.747-1.729,4.203-2.241
	c1.602-0.565,3.179,0.048,4.73-0.503c1.119-0.4,1.702-1.64,2.736-2.064c1.072-0.443,2.039,0.467,2.738,1.229
	c0.971,1.057,1.459,1.867,2.945,2.104c1.164,0.186,2.383-0.259,3.545-0.023c1.104,0.227,1.848,0.96,2.588,1.799
	c1.363,1.543,1.886,3.567,4.139,3.795c2.132,0.215,4.029,0.094,5.198,2.135c0.991,1.731,1.062,4.062,2.507,5.477
	c1.473,1.438,3.803,2.623,5.646,1.164c2.34-1.857,1.189-3.859,2.035-6.208c0.43-1.192,3.068-3.255,4.256-2.667
	c0.143-2.614,1.523-5.229,3.281-7.118c2.006-2.152,5.271-2.354,7.091-4.781c1.757-2.345,1.041-3.229,4.04-3.656
	c2.18-0.312,4.602,0.144,6.795,0.208c3.188,0.09,6.537,0.041,9.537-1.184c2.779-1.135,5.635-2.973,8.816-2.743
	c3.992,0.289,5.709,4.191,8.896,6.05c3.125,1.822,6.605,2.477,9.418,4.711c1.547,1.229,1.715,2.922,2.684,4.492
	c0.943,1.528,2.594,2.553,3.318,4.23c1.025,2.379-0.023,4.844,0.691,7.139c1.186,0.285,3.049,0.955,3.945,1.871
	c1.264,1.297,1.906,3.135,2.982,4.578c6.994-4.57,12.652-12.58,17.244-16.549l0.791,22.996L131.221,212.639z"/>
<path id="path3961" inkscape:connector-curvature="0" fill="#295D52" d="M453.634,205.495c-0.35,0.25-0.701,0.498-1.059,0.731
	c-1.076-1.442-1.719-3.281-2.986-4.577c-0.893-0.916-2.756-1.586-3.943-1.871c-0.715-2.294,0.332-4.76-0.691-7.139
	c-0.723-1.678-2.375-2.701-3.32-4.23c-0.965-1.57-1.135-3.264-2.682-4.491c-2.811-2.235-6.291-2.889-9.416-4.712
	c-3.189-1.857-4.908-5.761-8.896-6.049c-3.184-0.23-6.039,1.608-8.816,2.742c-3.002,1.225-6.35,1.273-9.539,1.184
	c-2.195-0.064-4.613-0.52-6.795-0.207c-3,0.427-2.282,1.311-4.039,3.656c-1.819,2.427-5.086,2.627-7.091,4.781
	c-1.759,1.889-3.14,4.504-3.281,7.118c-1.188-0.589-3.825,1.474-4.255,2.667c-0.848,2.348,0.303,4.351-2.036,6.205
	c-1.844,1.461-4.174,0.277-5.646-1.162c-1.446-1.415-1.517-3.745-2.507-5.478c-1.17-2.04-3.066-1.919-5.199-2.134
	c-2.254-0.228-2.775-2.252-4.139-3.795c-0.741-0.84-1.484-1.574-2.589-1.799c-1.161-0.236-2.379,0.209-3.544,0.022
	c-1.486-0.235-1.975-1.046-2.945-2.103c-0.699-0.762-1.667-1.672-2.738-1.23c-1.033,0.427-1.616,1.667-2.736,2.066
	c-1.553,0.552-3.129-0.062-4.73,0.503c-1.457,0.513-2.598,2.009-4.203,2.241c-2.846,0.412-3.536-0.434-6.192,1.231
	c-1.872,1.175-3.913,2.179-4.57,4.479c0.232-0.816-3.216-0.676-3.638-0.538c-1.112,0.36-1.896,1.398-2.646,2.237
	c-1.778,1.991-3.098,4.818-5.898,5.561c-0.943-3.052-3.004-5.027-6.328-4.785c-0.396-1.447-0.932-3.03-1.93-4.188
	c-0.881-1.023-2.757-1.277-3.438-2.123c-1.529-1.9-0.719-4.629-2.18-6.355c-0.834-0.986-2.391-1.053-3.317-1.992
	c-0.716-0.727-0.911-1.686-1.251-2.479c-1.025-2.387-1.768-3.02-4.183-4.17c-1.784-0.85-3.806-1.062-5.772-1.294
	c-2.203-0.259-4.074-0.472-6.043-1.446c-2.466-1.223-4.962-1.705-7.805-1.286c-4.581,0.674-7.709,1.987-12.328-0.375
	c-2.117-1.083-3.913-1.516-6.17-0.53c-3.736,1.632-9.531,2.967-12.391,6.076c-1.477,1.609-2.146,3.712-2.404,5.829
	c-0.439,3.591,1.832,8.625-3.341,9.576c-1.353,0.247-2.632-1.21-3.931-1.398c-1.312-0.19-2.434,0.431-3.751,0.126
	c-2.437-0.563-3.048-3.369-4.952-4.684c-2.245-1.551-5.242-2.123-7.894-2.447c-5.489-0.673-11.139,0.095-16.554-1.205
	c-2.675-0.642-4.751-2.262-7.598-2.141c-3.114,0.133-5.503,0.722-8.667,0.17c-8.576-1.498-16.454,6.132-20.086,13.529
	c-1.373,2.795-0.039,6.089-0.809,9.147c-0.847,3.356-3.926,5.188-3.842,9.678l299.424,0.032
	C453.314,210.285,453.433,207.886,453.634,205.495"/>
<path id="path3965" inkscape:connector-curvature="0" fill="#295D52" d="M12.581,138.414c-0.589,3.953-1.231,7.895-1.956,11.82
	c1.466,20.728,1.479,41.591,0.733,62.402l208.961,0.039l-0.813-41.254c-4.725,7.118-10.547,21.489-17.74,29.688
	c-1.107-2.59-1.767-5.887-3.071-8.215c-0.921-1.643-2.836-2.842-4.058-3.355c-0.735-4.115,0.343-8.539-0.712-12.807
	c-0.743-3.01-2.442-4.848-3.414-7.591c-0.995-2.815-1.169-5.855-2.758-8.057c-2.894-4.009-6.476-5.182-9.691-8.45
	c-3.28-3.336-5.046-10.337-9.153-10.855c-3.272-0.413-6.211,2.886-9.07,4.921c-3.087,2.197-6.531,2.284-9.813,2.123
	c-2.254-0.113-4.747-0.93-6.99-0.373c-3.084,0.769-2.347,2.353-4.156,6.559c-1.872,4.355-5.231,4.716-7.293,8.579
	c-1.811,3.39-3.229,8.081-3.376,12.77c-1.222-1.055-3.936,2.645-4.378,4.783c-0.871,4.216,0.312,7.809-2.094,11.137
	c-1.897,2.62-4.295,0.495-5.809-2.088c-1.488-2.537-1.559-6.719-2.58-9.824c-1.203-3.66-3.155-3.443-5.347-3.829
	c-2.321-0.409-2.856-4.041-4.259-6.809c-0.761-1.505-1.527-2.823-2.663-3.226c-1.195-0.424-2.448,0.374-3.646,0.041
	c-1.53-0.424-2.031-1.879-3.031-3.774c-0.718-1.365-1.713-3-2.817-2.205c-1.063,0.764-1.662,2.987-2.816,3.705
	c-1.596,0.99-3.218-0.112-4.865,0.901c-1.499,0.921-2.675,3.604-4.325,4.021c-2.927,0.74-3.639-0.776-6.372,2.211
	c-1.924,2.105-4.025,3.906-4.701,8.037c0.239-1.467-3.31-1.215-3.743-0.969c-1.144,0.648-1.952,2.511-2.723,4.014
	c-1.831,3.572-3.188,8.646-6.068,9.977c-0.971-5.477-3.091-9.018-6.512-8.584c-0.408-2.598-0.959-5.438-1.984-7.512
	c-0.908-1.836-2.837-2.29-3.538-3.811c-1.572-3.411-0.739-8.303-2.242-11.402c-0.858-1.767-2.46-1.89-3.413-3.572
	c-0.738-1.305-0.939-3.025-1.289-4.446c-1.053-4.281-1.818-5.42-4.302-7.481c-1.835-1.525-3.915-1.906-5.939-2.321
	c-2.267-0.463-4.191-0.846-6.216-2.596C18.022,138.559,15.475,137.695,12.581,138.414"/>
<path id="path3969" inkscape:connector-curvature="0" fill="#79C14F" d="M453.734,204.366c0.031-0.318,0.073-0.633,0.115-0.947
	l-0.802-23.679c-6.445,5.684-14.39,17.156-24.202,23.7c-1.513-2.066-2.41-4.699-4.19-6.557c-1.256-1.311-3.869-2.269-5.536-2.68
	c-1.003-3.285,0.469-6.816-0.973-10.225c-1.015-2.403-3.331-3.869-4.657-6.06c-1.357-2.247-1.595-4.674-3.766-6.433
	c-3.945-3.201-8.834-4.136-13.22-6.746c-4.475-2.664-6.888-8.252-12.489-8.666c-4.468-0.329-8.475,2.305-12.376,3.93
	c-4.211,1.754-8.91,1.823-13.389,1.694c-3.079-0.091-6.479-0.743-9.538-0.297c-4.21,0.614-3.203,1.877-5.671,5.236
	c-2.555,3.478-7.14,3.765-9.951,6.849c-2.471,2.705-4.407,6.45-4.608,10.194c-1.667-0.842-5.37,2.111-5.972,3.819
	c-1.191,3.365,0.426,6.232-2.856,8.892c-2.589,2.09-5.861,0.395-7.927-1.666c-2.031-2.027-2.129-5.365-3.521-7.846
	c-1.641-2.922-4.305-2.748-7.298-3.057c-3.164-0.326-3.896-3.226-5.812-5.436c-1.037-1.201-2.082-2.252-3.631-2.575
	c-1.631-0.339-3.342,0.299-4.976,0.032c-2.087-0.338-2.771-1.5-4.135-3.012c-0.982-1.09-2.339-2.394-3.844-1.762
	c-1.451,0.611-2.269,2.387-3.842,2.957c-2.179,0.793-4.392-0.088-6.639,0.722c-2.045,0.735-3.65,2.876-5.902,3.21
	c-3.993,0.592-4.963-0.621-8.692,1.766c-2.626,1.68-5.493,3.118-6.415,6.414c0.328-1.168-4.516-0.967-5.106-0.771
	c-1.561,0.518-2.663,2.003-3.715,3.205c-2.498,2.851-4.35,6.9-8.28,7.963c-1.322-4.371-4.218-7.197-8.884-6.853
	c-0.556-2.073-1.307-4.34-2.708-5.997c-1.237-1.465-3.87-1.828-4.826-3.041c-2.146-2.723-1.01-6.629-3.058-9.104
	c-1.171-1.412-3.358-1.508-4.658-2.853c-1.006-1.042-1.279-2.414-1.757-3.549c-1.439-3.419-2.481-4.325-5.87-5.973
	c-2.504-1.216-5.342-1.521-8.104-1.853c-3.092-0.371-5.719-0.675-8.481-2.072c-3.462-1.751-6.966-2.441-10.956-1.843
	c-6.432,0.966-10.821,2.846-17.305-0.536c-2.974-1.551-5.495-2.171-8.66-0.76c-5.248,2.34-13.382,4.251-17.396,8.704
	c-2.073,2.305-3.014,5.315-3.378,8.349c-0.615,5.142,2.575,12.353-4.686,13.714c-1.899,0.355-3.696-1.731-5.52-2.002
	c-1.838-0.273-3.416,0.618-5.266,0.181c-3.419-0.808-4.278-4.825-6.951-6.709c-3.151-2.222-7.358-3.041-11.08-3.506
	c-7.705-0.963-15.635,0.136-23.237-1.725c-3.754-0.919-6.669-3.238-10.666-3.064c-4.369,0.189-7.724,1.033-12.165,0.241
	c-12.04-2.146-23.097,8.783-28.198,19.379c-1.925,4.002-0.052,8.721-1.134,13.1c-0.812,3.288-3.09,5.555-4.412,8.717
	c-0.053,1.715-0.108,3.429-0.171,5.144l442.942,0.05C453.323,209.91,453.476,207.131,453.734,204.366"/>
<path id="path3973" inkscape:connector-curvature="0" fill="#28B057" d="M10.394,212.632l375.73,0.042l-1.105-32.935
	c-6.423,5.683-14.339,17.156-24.116,23.7c-1.507-2.066-2.403-4.699-4.176-6.558c-1.253-1.31-3.856-2.269-5.517-2.679
	c-1-3.285,0.466-6.817-0.969-10.224c-1.013-2.403-3.32-3.87-4.641-6.062c-1.355-2.246-1.591-4.672-3.752-6.433
	c-3.934-3.2-8.804-4.136-13.173-6.745c-4.46-2.664-6.862-8.254-12.446-8.667c-4.449-0.329-8.445,2.305-12.33,3.929
	c-4.195,1.754-8.88,1.823-13.341,1.694c-3.069-0.09-6.456-0.741-9.504-0.296c-4.195,0.613-3.193,1.877-5.651,5.236
	c-2.545,3.478-7.113,3.765-9.917,6.849c-2.461,2.705-4.391,6.448-4.589,10.194c-1.661-0.842-5.351,2.111-5.953,3.82
	c-1.185,3.363,0.425,6.232-2.847,8.889c-2.578,2.092-5.84,0.396-7.898-1.666c-2.022-2.025-2.119-5.363-3.508-7.844
	c-1.635-2.922-4.288-2.748-7.271-3.057c-3.153-0.326-3.882-3.226-5.789-5.436c-1.037-1.201-2.076-2.254-3.62-2.574
	c-1.625-0.34-3.329,0.297-4.958,0.031c-2.079-0.338-2.762-1.5-4.119-3.012c-0.979-1.09-2.332-2.395-3.831-1.762
	c-1.447,0.61-2.261,2.387-3.828,2.957c-2.171,0.792-4.375-0.088-6.616,0.721c-2.037,0.734-3.636,2.877-5.88,3.211
	c-3.979,0.59-4.947-0.621-8.662,1.764c-2.617,1.682-5.474,3.119-6.392,6.416c0.326-1.168-4.5-0.969-5.088-0.771
	c-1.555,0.518-2.654,2.004-3.703,3.205c-2.488,2.851-4.333,6.9-8.25,7.963c-1.318-4.372-4.202-7.198-8.853-6.852
	c-0.553-2.076-1.302-4.342-2.696-5.998c-1.234-1.465-3.858-1.828-4.81-3.041c-2.138-2.725-1.005-6.629-3.047-9.104
	c-1.167-1.412-3.346-1.508-4.64-2.852c-1.003-1.042-1.276-2.415-1.75-3.55c-1.435-3.418-2.473-4.326-5.85-5.972
	c-2.495-1.218-5.322-1.522-8.074-1.853c-3.083-0.372-5.7-0.675-8.453-2.073c-3.45-1.751-6.941-2.442-10.916-1.842
	c-6.408,0.966-10.783,2.846-17.243-0.536c-2.962-1.553-5.476-2.173-8.63-0.76c-5.229,2.339-13.334,4.251-17.333,8.704
	c-2.065,2.304-3.003,5.315-3.364,8.348c-0.613,5.143,2.564,12.354-4.671,13.714c-1.892,0.356-3.683-1.729-5.5-2.003
	c-1.832-0.271-3.403,0.62-5.247,0.183c-3.407-0.809-4.263-4.825-6.926-6.71c-3.14-2.22-7.333-3.04-11.042-3.505
	c-4.294-0.539-8.657-0.441-12.996-0.569C11.066,184.374,10.912,198.514,10.394,212.632"/>
<path id="path3977" inkscape:connector-curvature="0" fill="#634B34" d="M321.489,0c0,0-119.07,121.905-176.903,0
	C144.585,0,185.693,135.797,321.489,0"/>
<path id="path3981" inkscape:connector-curvature="0" fill="#634B34" d="M7.724,9.466c0.024,0.911,0.046,1.824,0.069,2.735
	C22.118,42.1,69.676,109.041,178.299,1.426C165.034,14.323,63.167,108.291,7.724,9.466"/>
<path id="path3985" inkscape:connector-curvature="0" fill="#634B34" d="M321.489,0c0,0,34.021,90.152,132.112,118.502
	C453.601,118.503,378.187,95.823,321.489,0"/>
<g>
	<circle fill="#FFFFFF" stroke="#000000" stroke-width="2" stroke-miterlimit="10" cx="213.306" cy="76.85" r="16.617"/>
	<line fill="none" stroke="#000000" stroke-width="2" stroke-miterlimit="10" x1="212.056" y1="93.1" x2="212.056" y2="163.6"/>
	<line fill="none" stroke="#000000" stroke-width="2" stroke-miterlimit="10" x1="212.056" y1="119.1" x2="243.056" y2="97.1"/>
	<line fill="none" stroke="#000000" stroke-width="2" stroke-miterlimit="10" x1="212.056" y1="119.1" x2="184.056" y2="96.6"/>
	<line fill="none" stroke="#000000" stroke-width="2" stroke-miterlimit="10" x1="212.056" y1="163.6" x2="234.556" y2="211.6"/>
	<line fill="none" stroke="#000000" stroke-width="2" stroke-miterlimit="10" x1="212.056" y1="163.6" x2="189.556" y2="212.6"/>
	<g>
		<path fill="#7CCEF2" d="M197.978,100.97l6.757,6.155c0,0,4.984,8.01,11.47,0.839c6.018-4.191,10.126-7.441,10.126-7.441
			l7.793,12.312l-10.615,9.434l1.047,23.831h-27l-0.277-23.823l-9.723-10.177L197.978,100.97z"/>
		<path fill="none" stroke="#000000" stroke-width="2" stroke-miterlimit="10" d="M197.978,100.97l6.757,6.155
			c0,0,4.984,8.01,11.47,0.839c6.018-4.191,10.126-7.441,10.126-7.441l7.793,12.312l-10.615,9.434l1.047,23.831h-27l-0.277-23.823
			l-9.723-10.177L197.978,100.97z"/>
	</g>
	
		<image overflow="visible" width="836" height="1216" xlink:href="uncflag.png"  transform="matrix(0.027 0 0 0.027 199.5571 112.6001)">
	</image>
</g>
<path fill="#F7D277" d="M140.556,213.1h152c0,0,7,42.5,45,69.5s77.5,41.199,93,57.6s24,31.4,24.5,52.9s0,291.5,0,291.5H9.556v-291
	c0,0-10-22.801,20-53.4s52-35.6,75-60.6S140.556,213.1,140.556,213.1z"/>
</svg>
