<?xml version="1.0" encoding="utf-8"?>
<!-- Generator: Adobe Illustrator 16.0.0, SVG Export Plug-In . SVG Version: 6.00 Build 0)  -->
<!DOCTYPE svg PUBLIC "-//W3C//DTD SVG 1.1//EN" "http://www.w3.org/Graphics/SVG/1.1/DTD/svg11.dtd">
<svg version="1.1"
	 id="svg9520" xmlns:dc="http://purl.org/dc/elements/1.1/" xmlns:cc="http://creativecommons.org/ns#" xmlns:rdf="http://www.w3.org/1999/02/22-rdf-syntax-ns#" xmlns:svg="http://www.w3.org/2000/svg" xmlns:sodipodi="http://sodipodi.sourceforge.net/DTD/sodipodi-0.dtd" xmlns:inkscape="http://www.inkscape.org/namespaces/inkscape" inkscape:version="0.48.0 r9654" sodipodi:docname="New document 4"
	 xmlns="http://www.w3.org/2000/svg" xmlns:xlink="http://www.w3.org/1999/xlink" x="0px" y="0px" width="319px"
	 height="1134.145px" viewBox="288.5 0 319 1134.145" enable-background="new 288.5 0 319 1134.145" xml:space="preserve">
<path id="path3913" inkscape:connector-curvature="0" fill="#2F8252" d="M965.49,0.001H7.481
	c1.419,55.025,2.92,110.077,1.203,165.078c39.666,0.368,136.423-6.204,169.023-76.193c0,0,59.368,80.193,170.462,65.749
	c0,0,58.441,75.49,92.537,0c0,0,69.108,41.262,105.174-49.99c0,0,21.799,87.156,84.939,64.917c0,0,94.803,55.693,106.979-44.148
	c0,0,82.794,85.23,124.191-12.176C861.99,113.238,976.444,140.024,965.49,0.001"/>
<path id="path3917" inkscape:connector-curvature="0" fill="#658747" d="M855.9,0.001H7.483c1.243,48.183,2.556,96.384,1.71,144.556
	c24.516-11.37,46.44-28.854,58.931-55.672c0,0,59.368,80.193,170.462,65.749c0,0,58.445,75.49,92.539,0
	c0,0,69.106,41.262,105.171-49.99c0,0,21.8,87.156,84.946,64.917c0,0,94.796,55.693,106.973-44.148c0,0,82.797,85.23,124.193-12.176
	C752.408,113.238,866.863,140.024,855.9,0.001"/>
<path id="path3921" inkscape:connector-curvature="0" fill="#4D382F" d="M807.084,456.702H139.632
	c-0.497,27.066-1.211,54.104-2.057,81.071v305.306H807.49V473.42C807.215,467.879,807.092,462.303,807.084,456.702"/>
<path id="path3925" inkscape:connector-curvature="0" fill="#4D382F" d="M880.791,456.703c-0.024-5.939,0.265-11.902,0.753-17.843
	c0.155-1.866,0.389-3.702,0.704-5.512L881.3,215.63l-34.025,94.967c-109.858-197.587-200.226-7.729-200.226-7.729
	c-102.937-204.252-190.051,8.67-190.051,8.67c-109.474-228.926-214.023-4.593-214.023-4.593
	C162.03,126.762,74.657,238.768,49.255,278.312c-1.686,14.83-3.701,29.623-6.147,44.304c2.843,44.51,2.868,89.31,1.422,133.994
	L880.791,456.703z"/>
<path id="path3929" inkscape:connector-curvature="0" fill="#634B34" d="M852.25,0.001c0,0-255.693,261.782-379.886,0
	C472.364,0.001,560.639,291.613,852.25,0.001"/>
<path id="path3937" inkscape:connector-curvature="0" fill="#8E6C56" d="M226.938,0.002c0,0,14.946,303.391-60.843,456.7h171.857
	c0,0-49.101-155.956-38.427-456.7H226.938z"/>
<path id="path3941" inkscape:connector-curvature="0" fill="#634B34" d="M365.707,0.002c0,0,14.943,303.391-60.843,456.7H476.72
	c0,0-49.104-155.956-38.43-456.7H365.707z"/>
<path id="path3945" inkscape:connector-curvature="0" fill="#8E6C56" d="M515.148,0.002c0,0,14.943,303.391-60.844,456.7H626.16
	c0,0-49.1-155.956-38.424-456.7H515.148z"/>
<path id="path3949" inkscape:connector-curvature="0" fill="#AC7D66" d="M632.568,0.002c0,0,14.942,303.391-60.844,456.7h171.857
	c0,0-49.103-155.956-38.427-456.7H632.568z"/>
<path id="path3957" inkscape:connector-curvature="0" fill="#295D52" d="M274.366,456.627c-0.159-9.639,5.639-13.572,7.233-20.782
	c1.449-6.563-1.059-13.64,1.522-19.642c6.839-15.887,21.669-32.271,37.818-29.054c5.953,1.188,10.453-0.079,16.314-0.364
	c5.358-0.26,9.27,3.219,14.302,4.596c10.195,2.791,20.833,1.145,31.166,2.589c4.991,0.695,10.634,1.926,14.861,5.255
	c3.583,2.823,4.734,8.848,9.322,10.059c2.48,0.655,4.595-0.681,7.062-0.272c2.444,0.409,4.854,3.54,7.401,3.005
	c9.739-2.04,5.461-12.854,6.288-20.562c0.488-4.549,1.748-9.062,4.526-12.514c5.385-6.68,16.294-9.547,23.329-13.053
	c4.246-2.118,7.629-1.188,11.619,1.139c8.692,5.073,14.579,2.251,23.205,0.807c5.351-0.9,10.049,0.136,14.694,2.762
	c3.707,2.092,7.228,2.55,11.377,3.105c3.703,0.496,7.509,0.954,10.866,2.777c4.548,2.471,5.946,3.829,7.875,8.956
	c0.64,1.702,1.006,3.76,2.354,5.321c1.745,2.018,4.678,2.159,6.248,4.275c2.748,3.71,1.224,9.566,4.102,13.65
	c1.282,1.814,4.815,2.36,6.473,4.559c1.88,2.482,2.889,5.883,3.632,8.993c6.26-0.518,10.14,3.72,11.916,10.273
	c5.272-1.593,7.755-7.666,11.104-11.939c1.412-1.803,2.893-4.032,4.983-4.807c0.793-0.292,7.288-0.596,6.847,1.161
	c1.24-4.944,5.087-7.1,8.608-9.621c4.996-3.576,6.299-1.761,11.656-2.646c3.021-0.499,5.173-3.712,7.913-4.812
	c3.015-1.215,5.983,0.104,8.904-1.08c2.107-0.859,3.205-3.521,5.15-4.434c2.021-0.952,3.842,1.003,5.157,2.639
	c1.826,2.27,2.747,4.009,5.544,4.518c2.191,0.397,4.485-0.557,6.674-0.051c2.077,0.485,3.479,2.062,4.873,3.862
	c2.565,3.314,3.55,7.661,7.791,8.149c4.014,0.462,7.584,0.202,9.787,4.584c1.865,3.719,1.997,8.722,4.719,11.76
	c2.772,3.09,7.16,5.634,10.631,2.5c4.404-3.987,2.238-8.288,3.83-13.33c0.81-2.561,5.777-6.989,8.014-5.728
	c0.268-5.614,2.867-11.23,6.177-15.285c3.776-4.623,9.922-5.056,13.351-10.27c3.307-5.034,1.958-6.933,7.604-7.851
	c4.104-0.67,8.664,0.309,12.793,0.447c6.004,0.191,12.307,0.087,17.955-2.543c5.233-2.438,10.607-6.384,16.598-5.892
	c7.517,0.62,10.749,9.001,16.75,12.991c5.882,3.914,12.436,5.318,17.73,10.116c2.912,2.639,3.229,6.274,5.053,9.646
	c1.774,3.283,4.882,5.483,6.246,9.086c1.932,5.108-0.043,10.401,1.302,15.33c2.232,0.611,5.739,2.05,7.428,4.018
	c2.38,2.784,3.59,6.73,5.615,9.831c13.167-9.813,23.819-27.016,32.464-35.536l1.489,49.382L274.366,456.627z"/>
<path id="path3961" inkscape:connector-curvature="0" fill="#295D52" d="M881.348,441.285c-0.658,0.537-1.32,1.068-1.993,1.571
	c-2.025-3.1-3.234-7.048-5.621-9.83c-1.681-1.968-5.188-3.405-7.424-4.018c-1.346-4.928,0.626-10.222-1.302-15.33
	c-1.359-3.603-4.472-5.802-6.25-9.086c-1.816-3.371-2.138-7.008-5.05-9.644c-5.292-4.801-11.844-6.204-17.728-10.119
	c-6.004-3.989-9.239-12.371-16.747-12.988c-5.994-0.495-11.37,3.454-16.599,5.889c-5.652,2.63-11.955,2.734-17.958,2.543
	c-4.133-0.14-8.686-1.117-12.793-0.445c-5.647,0.916-4.297,2.813-7.604,7.852c-3.424,5.211-9.574,5.643-13.35,10.268
	c-3.31,4.057-5.91,9.673-6.177,15.287c-2.237-1.266-7.202,3.164-8.011,5.726c-1.597,5.041,0.568,9.343-3.834,13.325
	c-3.471,3.138-7.857,0.596-10.63-2.496c-2.722-3.038-2.854-8.041-4.719-11.762c-2.203-4.38-5.772-4.12-9.789-4.582
	c-4.243-0.488-5.224-4.835-7.791-8.149c-1.396-1.804-2.795-3.381-4.875-3.862c-2.186-0.508-4.479,0.448-6.671,0.049
	c-2.797-0.507-3.718-2.246-5.545-4.516c-1.317-1.636-3.139-3.591-5.156-2.643c-1.945,0.916-3.042,3.579-5.15,4.438
	c-2.923,1.186-5.892-0.135-8.904,1.08c-2.745,1.102-4.893,4.313-7.914,4.812c-5.357,0.886-6.657-0.932-11.658,2.644
	c-3.525,2.524-7.366,4.68-8.604,9.62c0.438-1.753-6.054-1.45-6.848-1.156c-2.096,0.774-3.571,3.003-4.984,4.806
	c-3.348,4.275-5.831,10.348-11.104,11.939c-1.776-6.552-5.655-10.795-11.913-10.273c-0.747-3.108-1.754-6.509-3.633-8.993
	c-1.659-2.197-5.19-2.743-6.473-4.559c-2.878-4.082-1.353-9.94-4.104-13.647c-1.57-2.119-4.501-2.262-6.246-4.278
	c-1.347-1.561-1.715-3.619-2.355-5.322c-1.929-5.126-3.327-6.484-7.873-8.954c-3.359-1.824-7.165-2.282-10.867-2.778
	c-4.147-0.557-7.67-1.015-11.377-3.105c-4.643-2.626-9.341-3.662-14.693-2.762c-8.625,1.446-14.514,4.268-23.209-0.807
	c-3.985-2.326-7.366-3.257-11.616-1.138c-7.034,3.505-17.944,6.372-23.327,13.047c-2.779,3.456-4.041,7.973-4.525,12.519
	c-0.827,7.711,3.449,18.521-6.291,20.562c-2.546,0.531-4.954-2.598-7.399-3.003c-2.469-0.408-4.582,0.927-7.062,0.271
	c-4.587-1.21-5.739-7.234-9.322-10.059c-4.227-3.328-9.87-4.56-14.861-5.255c-10.334-1.444-20.97,0.203-31.166-2.589
	c-5.037-1.377-8.945-4.854-14.302-4.596c-5.862,0.285-10.361,1.55-16.318,0.364c-16.146-3.218-30.975,13.168-37.814,29.054
	c-2.584,6.002-0.073,13.076-1.522,19.643c-1.595,7.209-7.393,11.144-7.234,20.783l563.703,0.069
	C880.746,451.572,880.97,446.42,881.348,441.285"/>
<path id="path3965" inkscape:connector-curvature="0" fill="#295D52" d="M44.641,297.234c-1.128,8.488-2.357,16.953-3.742,25.382
	c2.806,44.512,2.831,89.313,1.404,134.003l399.803,0.084l-1.559-88.59c-9.038,15.286-20.178,46.146-33.941,63.753
	c-2.118-5.562-3.379-12.643-5.875-17.643c-1.763-3.526-5.425-6.103-7.762-7.206c-1.407-8.837,0.653-18.337-1.366-27.502
	c-1.42-6.463-4.674-10.408-6.53-16.301c-1.905-6.045-2.238-12.573-5.278-17.302c-5.536-8.609-12.389-11.128-18.54-18.147
	c-6.276-7.164-9.656-22.197-17.514-23.309c-6.262-0.887-11.883,6.198-17.354,10.567c-5.906,4.719-12.496,4.903-18.776,4.559
	c-4.313-0.242-9.082-1.998-13.373-0.801c-5.902,1.65-4.492,5.053-7.952,14.084c-3.582,9.353-10.009,10.129-13.955,18.423
	c-3.465,7.28-6.18,17.352-6.46,27.423c-2.337-2.267-7.532,5.679-8.377,10.271c-1.667,9.054,0.599,16.77-4.007,23.916
	c-3.629,5.627-8.217,1.062-11.114-4.484c-2.847-5.447-2.984-14.428-4.936-21.096c-2.302-7.86-6.039-7.396-10.231-8.225
	c-4.439-0.878-5.464-8.678-8.148-14.62c-1.457-3.231-2.922-6.062-5.096-6.928c-2.287-0.911-4.685,0.802-6.976,0.087
	c-2.928-0.909-3.886-4.034-5.799-8.104c-1.375-2.933-3.278-6.442-5.39-4.734c-2.033,1.641-3.18,6.415-5.387,7.956
	c-3.055,2.125-6.157-0.241-9.309,1.935c-2.868,1.979-5.118,7.74-8.274,8.637c-5.601,1.589-6.963-1.667-12.19,4.748
	c-3.682,4.521-7.703,8.389-8.994,17.259c0.457-3.149-6.333-2.608-7.161-2.079c-2.189,1.392-3.733,5.391-5.208,8.618
	c-3.504,7.672-6.1,18.564-11.609,21.425c-1.859-11.761-5.916-19.365-12.458-18.434c-0.781-5.578-1.836-11.678-3.797-16.133
	c-1.738-3.941-5.428-4.917-6.769-8.183c-3.008-7.324-1.414-17.831-4.289-24.485c-1.641-3.794-4.708-4.058-6.529-7.672
	c-1.414-2.802-1.797-6.495-2.465-9.547c-2.016-9.194-3.479-11.639-8.231-16.065c-3.511-3.275-7.49-4.094-11.364-4.985
	c-4.338-0.994-8.019-1.816-11.893-5.574C55.052,297.544,50.177,295.69,44.641,297.234"/>
<path id="path3969" inkscape:connector-curvature="0" fill="#79C14F" d="M881.537,438.86c0.058-0.685,0.136-1.358,0.216-2.034
	l-1.51-50.849c-12.135,12.205-27.09,36.843-45.564,50.896c-2.847-4.438-4.538-10.092-7.889-14.079
	c-2.364-2.815-7.284-4.872-10.423-5.755c-1.887-7.055,0.884-14.638-1.83-21.957c-1.912-5.161-6.272-8.31-8.77-13.013
	c-2.555-4.825-3.003-10.037-7.089-13.813c-7.428-6.874-16.632-8.883-24.888-14.486c-8.424-5.721-12.967-17.722-23.512-18.608
	c-8.412-0.706-15.954,4.948-23.3,8.438c-7.928,3.767-16.775,3.914-25.206,3.639c-5.797-0.196-12.198-1.597-17.956-0.64
	c-7.926,1.318-6.029,4.032-10.676,11.245c-4.811,7.467-13.442,8.083-18.734,14.706c-4.652,5.81-8.298,13.853-8.677,21.893
	c-3.137-1.81-10.108,4.533-11.241,8.2c-2.243,7.228,0.802,13.386-5.378,19.096c-4.874,4.487-11.036,0.848-14.922-3.578
	c-3.824-4.354-4.009-11.521-6.629-16.85c-3.089-6.272-8.104-5.899-13.74-6.562c-5.956-0.701-7.332-6.928-10.939-11.673
	c-1.954-2.579-3.92-4.835-6.837-5.529c-3.069-0.729-6.29,0.642-9.368,0.068c-3.927-0.727-5.216-3.222-7.784-6.469
	c-1.849-2.34-4.401-5.141-7.236-3.782c-2.731,1.312-4.271,5.126-7.233,6.351c-4.101,1.703-8.266-0.188-12.497,1.55
	c-3.849,1.578-6.872,6.177-11.111,6.894c-7.519,1.271-9.345-1.333-16.364,3.791c-4.945,3.606-10.343,6.695-12.077,13.773
	c0.616-2.508-8.502-2.075-9.614-1.657c-2.938,1.112-5.013,4.303-6.993,6.884c-4.703,6.122-8.189,14.817-15.588,17.101
	c-2.491-9.387-7.941-15.456-16.726-14.716c-1.048-4.452-2.461-9.318-5.098-12.879c-2.329-3.146-7.286-3.924-9.084-6.529
	c-4.041-5.847-1.901-14.234-5.757-19.55c-2.204-3.031-6.322-3.238-8.768-6.126c-1.896-2.237-2.408-5.184-3.31-7.622
	c-2.708-7.342-4.668-9.287-11.049-12.825c-4.715-2.611-10.057-3.266-15.258-3.978c-5.821-0.798-10.767-1.449-15.967-4.45
	c-6.519-3.761-13.114-5.243-20.625-3.957c-12.109,2.074-20.372,6.112-32.578-1.151c-5.598-3.332-10.346-4.663-16.303-1.632
	c-9.881,5.024-25.195,9.128-32.75,18.69c-3.903,4.948-5.676,11.414-6.36,17.929c-1.157,11.04,4.848,26.526-8.822,29.448
	c-3.575,0.765-6.959-3.717-10.392-4.299c-3.46-0.587-6.429,1.327-9.912,0.388c-6.437-1.734-8.054-10.361-13.087-14.406
	c-5.932-4.771-13.852-6.531-20.859-7.529c-14.506-2.065-29.436,0.292-43.747-3.703c-7.067-1.975-12.556-6.953-20.08-6.579
	c-8.225,0.404-14.541,2.218-22.901,0.519c-22.667-4.609-43.483,18.859-53.085,41.613c-3.624,8.595-0.098,18.727-2.136,28.132
	c-1.53,7.061-5.817,11.928-8.306,18.719c-0.099,3.683-0.202,7.361-0.322,11.044l833.894,0.107
	C880.762,450.766,881.049,444.8,881.537,438.86"/>
<path id="path3973" inkscape:connector-curvature="0" fill="#28B057" d="M41.633,456.613l845.313,0.09l-2.486-70.726
	c-14.451,12.203-32.263,36.843-54.258,50.896c-3.388-4.438-5.406-10.092-9.394-14.082c-2.819-2.812-8.675-4.872-12.412-5.752
	c-2.249-7.055,1.048-14.642-2.179-21.954c-2.28-5.161-7.471-8.312-10.44-13.017c-3.05-4.824-3.579-10.033-8.441-13.813
	c-8.848-6.871-19.806-8.883-29.635-14.483c-10.034-5.723-15.439-17.727-28.003-18.61c-10.01-0.706-19,4.949-27.739,8.437
	c-9.44,3.768-19.979,3.914-30.014,3.638c-6.906-0.192-14.525-1.592-21.383-0.637c-9.438,1.315-7.184,4.032-12.716,11.245
	c-5.724,7.467-16.002,8.084-22.31,14.706c-5.537,5.81-9.879,13.848-10.324,21.893c-3.737-1.81-12.036,4.533-13.392,8.203
	c-2.666,7.224,0.955,13.384-6.406,19.089c-5.8,4.491-13.139,0.849-17.769-3.578c-4.55-4.351-4.768-11.519-7.893-16.846
	c-3.678-6.272-9.646-5.899-16.357-6.562c-7.095-0.701-8.733-6.928-13.023-11.673c-2.334-2.579-4.671-4.841-8.145-5.528
	c-3.654-0.729-7.489,0.638-11.152,0.067c-4.68-0.727-6.214-3.222-9.268-6.468c-2.203-2.341-5.245-5.145-8.619-3.783
	c-3.255,1.311-5.086,5.126-8.611,6.351c-4.884,1.7-9.845-0.188-14.885,1.547c-4.583,1.577-8.18,6.18-13.229,6.896
	c-8.95,1.268-11.129-1.333-19.485,3.787c-5.889,3.61-12.316,6.698-14.382,13.777c0.734-2.508-10.123-2.08-11.446-1.656
	c-3.5,1.111-5.971,4.304-8.331,6.883c-5.599,6.122-9.75,14.817-18.561,17.101c-2.966-9.39-9.451-15.457-19.917-14.714
	c-1.244-4.458-2.931-9.323-6.066-12.881c-2.778-3.146-8.68-3.924-10.82-6.529c-4.811-5.851-2.262-14.234-6.857-19.55
	c-2.625-3.031-7.528-3.237-10.438-6.123c-2.257-2.239-2.871-5.187-3.937-7.625c-3.229-7.34-5.566-9.29-13.164-12.824
	c-5.612-2.613-11.973-3.27-18.163-3.979c-6.937-0.798-12.825-1.449-19.017-4.45c-7.762-3.761-15.617-5.244-24.56-3.956
	c-14.415,2.075-24.258,6.111-38.793-1.151c-6.664-3.334-12.319-4.666-19.416-1.633c-11.762,5.023-29.999,9.13-38.996,18.69
	c-4.647,4.945-6.756,11.414-7.569,17.926c-1.38,11.043,5.77,26.529-10.509,29.45c-4.256,0.766-8.285-3.715-12.372-4.302
	c-4.123-0.582-7.657,1.332-11.803,0.392c-7.666-1.735-9.591-10.361-15.583-14.408c-7.062-4.767-16.496-6.528-24.841-7.526
	c-9.66-1.155-19.477-0.947-29.237-1.223C43.146,395.929,42.797,426.295,41.633,456.613"/>
<path id="path3977" inkscape:connector-curvature="0" fill="#634B34" d="M681.789,0.001c0,0-255.693,261.782-379.887,0
	C301.902,0.001,390.177,291.613,681.789,0.001"/>
<path id="path3981" inkscape:connector-curvature="0" fill="#634B34" d="M8.002,20.327c0.051,1.957,0.1,3.917,0.147,5.873
	C38.912,90.406,141.04,234.157,374.299,3.062C345.813,30.758,127.063,232.546,8.002,20.327"/>
<g>
	<circle fill="#FFFFFF" stroke="#000000" stroke-width="2" stroke-miterlimit="10" cx="449.475" cy="165.029" r="35.684"/>
	
		<line fill="none" stroke="#000000" stroke-width="2" stroke-miterlimit="10" x1="446.791" y1="199.925" x2="446.791" y2="351.318"/>
	<line fill="none" stroke="#000000" stroke-width="2" stroke-miterlimit="10" x1="446.791" y1="255.759" x2="513.36" y2="208.515"/>
	
		<line fill="none" stroke="#000000" stroke-width="2" stroke-miterlimit="10" x1="446.791" y1="255.759" x2="386.662" y2="207.441"/>
	
		<line fill="none" stroke="#000000" stroke-width="2" stroke-miterlimit="10" x1="446.791" y1="351.318" x2="495.107" y2="454.395"/>
	
		<line fill="none" stroke="#000000" stroke-width="2" stroke-miterlimit="10" x1="446.791" y1="351.318" x2="398.473" y2="456.542"/>
	<g>
		<path fill="#7CCEF2" d="M416.559,216.825l14.512,13.218c0,0,10.703,17.2,24.63,1.803c12.923-9.002,21.745-15.979,21.745-15.979
			l16.734,26.44l-22.796,20.259l2.248,51.173h-57.979l-0.596-51.156l-20.878-21.855L416.559,216.825z"/>
		<path fill="none" stroke="#000000" stroke-width="2" stroke-miterlimit="10" d="M416.559,216.825l14.512,13.218
			c0,0,10.703,17.2,24.63,1.803c12.923-9.002,21.745-15.979,21.745-15.979l16.734,26.44l-22.796,20.259l2.248,51.173h-57.979
			l-0.596-51.156l-20.878-21.855L416.559,216.825z"/>
	</g>
	
		<image overflow="visible" enable-background="new    " width="836" height="1216" xlink:href="uncflag.png"  transform="matrix(0.058 0 0 0.058 419.9482 241.7998)">
	</image>
</g>
<rect x="138.158" y="642.167" fill="#F7D277" width="668.397" height="493.354"/>
<path fill="#F7D277" d="M336.692,457.616h227.187c0,0,10.463,45.147,67.26,73.831c56.796,28.683,115.834,43.767,139.001,61.188
	s35.873,33.357,36.62,56.196c0.747,22.841,0,309.666,0,309.666H140.894V649.365c0,0-14.946-24.223,29.892-56.729
	c44.839-32.507,77.722-37.817,112.099-64.376C317.262,501.703,336.692,457.616,336.692,457.616z"/>
<line id="inv" fill="none" x1="445.494" y1="457.572" x2="445.494" y2="712.572"/>
</svg>
