<?xml version="1.0" encoding="utf-8"?>
<!-- Generator: Adobe Illustrator 16.0.0, SVG Export Plug-In . SVG Version: 6.00 Build 0)  -->
<!DOCTYPE svg PUBLIC "-//W3C//DTD SVG 1.1//EN" "http://www.w3.org/Graphics/SVG/1.1/DTD/svg11.dtd">
<svg version="1.1"
	 id="svg9520" xmlns:dc="http://purl.org/dc/elements/1.1/" xmlns:cc="http://creativecommons.org/ns#" xmlns:rdf="http://www.w3.org/1999/02/22-rdf-syntax-ns#" xmlns:svg="http://www.w3.org/2000/svg" xmlns:sodipodi="http://sodipodi.sourceforge.net/DTD/sodipodi-0.dtd" xmlns:inkscape="http://www.inkscape.org/namespaces/inkscape" sodipodi:docname="New document 4" inkscape:version="0.48.0 r9654"
	 xmlns="http://www.w3.org/2000/svg" xmlns:xlink="http://www.w3.org/1999/xlink" x="0px" y="0px" width="954px"
	 height="1134.145px" viewBox="9.556 0 954 1134.145" enable-background="new 9.556 0 954 1134.145" xml:space="preserve">
<sodipodi:namedview  fit-margin-left="0" fit-margin-top="0" showgrid="false" inkscape:cy="30.100305" inkscape:cx="396.34196" inkscape:zoom="0.35" borderopacity="1.0" bordercolor="#666666" pagecolor="#ffffff" id="base" inkscape:window-maximized="0" inkscape:window-y="25" inkscape:window-x="25" inkscape:window-height="425" inkscape:window-width="469" fit-margin-bottom="0" inkscape:current-layer="layer1" inkscape:pageshadow="2" inkscape:document-units="px" inkscape:pageopacity="0.0" fit-margin-right="0">
	</sodipodi:namedview>
<path id="path3913" inkscape:connector-curvature="0" fill="#2F8252" d="M965.49,0.001H7.481
	c1.419,55.025,2.92,110.077,1.203,165.078c39.666,0.368,136.423-6.204,169.023-76.193c0,0,59.368,80.193,170.462,65.749
	c0,0,58.441,75.49,92.537,0c0,0,69.108,41.262,105.174-49.99c0,0,21.799,87.156,84.939,64.917c0,0,94.803,55.693,106.979-44.148
	c0,0,82.794,85.23,124.191-12.176C861.99,113.238,976.444,140.024,965.49,0.001"/>
<path id="path3917" inkscape:connector-curvature="0" fill="#658747" d="M855.9,0.001H7.483c1.243,48.183,2.556,96.384,1.71,144.556
	c24.516-11.37,46.44-28.854,58.931-55.672c0,0,59.368,80.193,170.462,65.749c0,0,58.445,75.49,92.539,0
	c0,0,69.106,41.262,105.171-49.99c0,0,21.8,87.156,84.946,64.917c0,0,94.796,55.693,106.973-44.148c0,0,82.797,85.23,124.193-12.176
	C752.408,113.238,866.863,140.024,855.9,0.001"/>
<path id="path3921" inkscape:connector-curvature="0" fill="#4D382F" d="M964.907,456.702H7.028
	c-0.713,27.067-1.739,54.104-2.953,81.071v305.306H965.49V473.42C965.096,467.879,964.919,462.303,964.907,456.702"/>
<path id="path3925" inkscape:connector-curvature="0" fill="#4D382F" d="M964.926,456.702c-0.029-5.939,0.301-11.902,0.858-17.843
	c0.177-1.866,0.444-3.702,0.804-5.511l-1.082-217.719l-38.812,94.967c-125.309-197.587-228.387-7.73-228.387-7.73
	c-117.416-204.252-216.784,8.67-216.784,8.67c-124.871-228.926-244.126-4.593-244.126-4.593
	C145.067,126.761,45.405,238.767,16.43,278.311c-1.923,14.83-4.221,29.623-7.012,44.304c3.243,44.51,3.271,89.31,1.622,133.994
	L964.926,456.702z"/>
<path id="path3929" inkscape:connector-curvature="0" fill="#634B34" d="M852.25,0.001c0,0-255.693,261.782-379.886,0
	C472.364,0.001,560.639,291.613,852.25,0.001"/>
<path id="path3933" inkscape:connector-curvature="0" fill="#634B34" d="M11.773,450.833c-0.061,1.959-0.122,3.914-0.189,5.868
	h175.863c0,0-51.024-155.958-39.932-456.702H72.087C72.087,0,87.218,295.799,11.773,450.833"/>
<path id="path3937" inkscape:connector-curvature="0" fill="#8E6C56" d="M219.105,0.001c0,0,17.048,303.391-69.402,456.7h196.03
	c0,0-56.007-155.956-43.832-456.7H219.105z"/>
<path id="path3941" inkscape:connector-curvature="0" fill="#634B34" d="M377.392,0.001c0,0,17.045,303.391-69.401,456.7H504.02
	c0,0-56.01-155.956-43.835-456.7H377.392z"/>
<path id="path3945" inkscape:connector-curvature="0" fill="#8E6C56" d="M547.854,0.001c0,0,17.045,303.391-69.402,456.7H674.48
	c0,0-56.006-155.956-43.829-456.7H547.854z"/>
<path id="path3949" inkscape:connector-curvature="0" fill="#AC7D66" d="M681.789,0.001c0,0,17.045,303.391-69.402,456.7h196.031
	c0,0-56.01-155.956-43.832-456.7H681.789z"/>
<path id="path3953" inkscape:connector-curvature="0" fill="#8E6C56" d="M964.898,456.702c-0.009-1.747,0.013-3.498,0.066-5.251
	c-9.356-29.409-52.984-182.539-42.092-451.449h-82.802c0,0,17.054,303.391-69.397,456.7H964.898z"/>
<path id="path3957" inkscape:connector-curvature="0" fill="#295D52" d="M273.204,456.626c-0.181-9.639,6.432-13.572,8.251-20.782
	c1.653-6.564-1.208-13.64,1.737-19.642c7.801-15.887,24.717-32.271,43.137-29.054c6.791,1.188,11.923-0.079,18.609-0.364
	c6.112-0.26,10.573,3.219,16.314,4.596c11.629,2.791,23.762,1.144,35.549,2.589c5.693,0.695,12.13,1.926,16.951,5.255
	c4.087,2.823,5.4,8.847,10.633,10.058c2.829,0.655,5.241-0.68,8.055-0.272c2.789,0.409,5.538,3.54,8.442,3.005
	c11.109-2.04,6.229-12.854,7.173-20.563c0.556-4.549,1.993-9.062,5.163-12.514c6.142-6.679,18.586-9.546,26.609-13.052
	c4.844-2.118,8.703-1.189,13.254,1.138c9.915,5.074,16.63,2.251,26.47,0.807c6.102-0.9,11.462,0.136,16.76,2.762
	c4.228,2.092,8.245,2.55,12.977,3.105c4.224,0.496,8.565,0.954,12.395,2.778c5.188,2.47,6.782,3.829,8.983,8.956
	c0.73,1.702,1.147,3.759,2.684,5.321c1.991,2.017,5.336,2.159,7.127,4.275c3.135,3.71,1.396,9.567,4.678,13.651
	c1.463,1.814,5.493,2.36,7.384,4.558c2.144,2.483,3.294,5.883,4.143,8.993c7.14-0.517,11.565,3.72,13.592,10.274
	c6.013-1.593,8.845-7.666,12.665-11.94c1.61-1.802,3.298-4.032,5.684-4.806c0.904-0.292,8.313-0.596,7.81,1.161
	c1.414-4.944,5.801-7.1,9.819-9.621c5.699-3.576,7.185-1.761,13.295-2.646c3.446-0.499,5.9-3.712,9.026-4.812
	c3.439-1.215,6.825,0.103,10.158-1.08c2.403-0.86,3.655-3.521,5.875-4.434c2.304-0.952,4.38,1.003,5.881,2.639
	c2.084,2.269,3.134,4.009,6.325,4.517c2.5,0.398,5.116-0.556,7.612-0.05c2.369,0.485,3.968,2.061,5.558,3.862
	c2.927,3.314,4.049,7.661,8.887,8.149c4.578,0.462,8.652,0.202,11.163,4.584c2.128,3.719,2.279,8.722,5.383,11.76
	c3.163,3.09,8.167,5.634,12.126,2.5c5.024-3.987,2.554-8.288,4.37-13.33c0.923-2.561,6.589-6.989,9.14-5.728
	c0.306-5.614,3.271-11.23,7.046-15.285c4.308-4.623,11.317-5.055,15.228-10.269c3.772-5.034,2.234-6.933,8.675-7.851
	c4.681-0.67,9.882,0.309,14.591,0.447c6.849,0.192,14.038,0.087,20.481-2.543c5.969-2.437,12.1-6.383,18.933-5.891
	c8.573,0.62,12.26,9.001,19.104,12.991c6.711,3.914,14.186,5.318,20.225,10.116c3.322,2.639,3.683,6.275,5.764,9.646
	c2.025,3.283,5.568,5.483,7.125,9.086c2.203,5.108-0.049,10.401,1.485,15.33c2.546,0.611,6.547,2.05,8.473,4.017
	c2.714,2.785,4.093,6.731,6.404,9.831c15.019-9.813,27.169-27.015,37.029-35.536l1.7,49.382L273.204,456.626z"/>
<path id="path3961" inkscape:connector-curvature="0" fill="#295D52" d="M965.561,441.284c-0.751,0.537-1.506,1.069-2.274,1.571
	c-2.311-3.099-3.689-7.047-6.412-9.83c-1.917-1.967-5.918-3.405-8.468-4.017c-1.535-4.928,0.713-10.222-1.485-15.33
	c-1.551-3.603-5.101-5.802-7.129-9.086c-2.072-3.371-2.438-7.008-5.76-9.644c-6.036-4.801-13.51-6.204-20.22-10.119
	c-6.849-3.989-10.54-12.371-19.104-12.988c-6.837-0.495-12.969,3.454-18.933,5.888c-6.447,2.63-13.636,2.735-20.484,2.543
	c-4.714-0.139-9.907-1.117-14.592-0.445c-6.442,0.916-4.901,2.814-8.674,7.852c-3.906,5.211-10.921,5.642-15.227,10.267
	c-3.776,4.057-6.741,9.673-7.046,15.287c-2.552-1.265-8.215,3.164-9.138,5.726c-1.82,5.041,0.649,9.343-4.373,13.325
	c-3.958,3.138-8.963,0.596-12.125-2.496c-3.104-3.038-3.257-8.041-5.383-11.762c-2.512-4.38-6.584-4.12-11.165-4.582
	c-4.84-0.488-5.959-4.835-8.887-8.149c-1.592-1.804-3.188-3.381-5.561-3.862c-2.493-0.508-5.107,0.448-7.609,0.048
	c-3.191-0.506-4.241-2.246-6.325-4.515c-1.502-1.636-3.58-3.591-5.881-2.643c-2.219,0.916-3.47,3.579-5.875,4.438
	c-3.334,1.185-6.72-0.135-10.158,1.08c-3.13,1.101-5.579,4.313-9.026,4.812c-6.111,0.886-7.594-0.931-13.298,2.644
	c-4.021,2.524-8.402,4.68-9.813,9.62c0.499-1.753-6.906-1.45-7.812-1.156c-2.39,0.774-4.074,3.003-5.685,4.805
	c-3.818,4.276-6.652,10.348-12.666,11.94c-2.026-6.552-6.451-10.795-13.589-10.274c-0.852-3.108-2-6.508-4.144-8.993
	c-1.892-2.197-5.921-2.743-7.383-4.558c-3.283-4.082-1.543-9.941-4.681-13.648c-1.79-2.119-5.134-2.262-7.124-4.278
	c-1.536-1.561-1.956-3.619-2.687-5.322c-2.201-5.126-3.795-6.485-8.98-8.955c-3.832-1.824-8.173-2.282-12.396-2.778
	c-4.73-0.556-8.749-1.014-12.977-3.105c-5.296-2.626-10.656-3.662-16.76-2.762c-9.838,1.446-16.556,4.268-26.474-0.807
	c-4.547-2.326-8.403-3.256-13.25-1.137c-8.024,3.505-20.468,6.372-26.608,13.047c-3.17,3.456-4.609,7.972-5.162,12.518
	c-0.944,7.711,3.934,18.521-7.175,20.563c-2.904,0.531-5.651-2.598-8.44-3.003c-2.817-0.409-5.227,0.926-8.056,0.271
	c-5.232-1.21-6.546-7.234-10.633-10.058c-4.821-3.329-11.258-4.56-16.951-5.255c-11.787-1.445-23.92,0.203-35.549-2.589
	c-5.745-1.377-10.203-4.855-16.314-4.596c-6.687,0.285-11.818,1.55-18.613,0.364c-18.417-3.217-35.332,13.168-43.133,29.054
	c-2.948,6.002-0.084,13.076-1.737,19.643c-1.819,7.209-8.432,11.143-8.251,20.783l642.99,0.069
	C964.874,451.571,965.129,446.419,965.561,441.284"/>
<path id="path3965" inkscape:connector-curvature="0" fill="#295D52" d="M11.167,297.233c-1.286,8.488-2.688,16.953-4.268,25.382
	c3.2,44.512,3.229,89.314,1.601,134.003l456.037,0.084l-1.777-88.59c-10.31,15.286-23.016,46.146-38.716,63.753
	c-2.415-5.562-3.855-12.642-6.702-17.642c-2.011-3.527-6.188-6.103-8.854-7.206c-1.604-8.837,0.746-18.337-1.557-27.502
	c-1.62-6.463-5.331-10.409-7.449-16.301c-2.172-6.045-2.552-12.573-6.02-17.302c-6.314-8.609-14.131-11.128-21.148-18.147
	c-7.158-7.164-11.014-22.197-19.977-23.309c-7.142-0.887-13.554,6.198-19.794,10.567c-6.737,4.719-14.254,4.904-21.417,4.559
	c-4.92-0.242-10.359-1.998-15.254-0.801c-6.733,1.651-5.124,5.053-9.07,14.084c-4.086,9.353-11.417,10.129-15.917,18.423
	c-3.953,7.28-7.05,17.352-7.369,27.423c-2.666-2.267-8.591,5.679-9.556,10.271c-1.901,9.054,0.683,16.77-4.571,23.916
	c-4.139,5.627-9.373,1.062-12.677-4.484c-3.247-5.447-3.403-14.428-5.63-21.096c-2.625-7.86-6.887-7.395-11.67-8.224
	c-5.064-0.878-6.233-8.678-9.295-14.62c-1.661-3.232-3.333-6.062-5.812-6.928c-2.608-0.911-5.344,0.802-7.957,0.087
	c-3.339-0.909-4.433-4.034-6.615-8.104c-1.568-2.932-3.739-6.442-6.148-4.734c-2.319,1.641-3.627,6.415-6.145,7.956
	c-3.484,2.125-7.023-0.241-10.618,1.935c-3.271,1.979-5.838,7.74-9.438,8.636c-6.389,1.589-7.942-1.667-13.905,4.748
	c-4.199,4.522-8.786,8.389-10.259,17.259c0.521-3.149-7.224-2.608-8.168-2.079c-2.497,1.392-4.259,5.391-5.941,8.618
	c-3.997,7.672-6.958,18.565-13.243,21.425c-2.12-11.761-6.747-19.365-14.211-18.434c-0.89-5.578-2.094-11.677-4.331-16.132
	c-1.982-3.942-6.191-4.917-7.72-8.183c-3.431-7.324-1.613-17.831-4.893-24.485c-1.872-3.794-5.37-4.058-7.447-7.672
	c-1.612-2.802-2.049-6.495-2.812-9.547c-2.299-9.194-3.968-11.639-9.389-16.066c-4.004-3.275-8.543-4.093-12.962-4.985
	c-4.948-0.994-9.146-1.816-13.565-5.574C23.043,297.543,17.482,295.689,11.167,297.233"/>
<path id="path3969" inkscape:connector-curvature="0" fill="#79C14F" d="M965.775,438.859c0.067-0.684,0.157-1.358,0.247-2.034
	l-1.722-50.848c-13.841,12.205-30.9,36.842-51.973,50.895c-3.247-4.438-5.176-10.092-8.998-14.079
	c-2.697-2.815-8.309-4.872-11.889-5.755c-2.153-7.055,1.008-14.638-2.089-21.957c-2.179-5.161-7.153-8.31-10.001-13.013
	c-2.915-4.825-3.425-10.037-8.086-13.813c-8.473-6.874-18.971-8.883-28.389-14.486c-9.609-5.721-14.79-17.722-26.819-18.609
	c-9.595-0.706-18.198,4.948-26.576,8.438c-9.044,3.766-19.135,3.914-28.752,3.638c-6.612-0.196-13.914-1.596-20.482-0.639
	c-9.04,1.318-6.878,4.032-12.177,11.245c-5.487,7.467-15.333,8.083-21.369,14.706c-5.307,5.809-9.466,13.852-9.897,21.892
	c-3.579-1.809-11.531,4.534-12.823,8.201c-2.559,7.227,0.914,13.385-6.134,19.095c-5.56,4.488-12.588,0.848-17.022-3.578
	c-4.361-4.354-4.571-11.521-7.56-16.849c-3.523-6.273-9.244-5.9-15.673-6.562c-6.794-0.701-8.364-6.928-12.479-11.673
	c-2.228-2.579-4.471-4.835-7.798-5.529c-3.502-0.729-7.175,0.642-10.685,0.068c-4.481-0.726-5.951-3.221-8.879-6.468
	c-2.11-2.34-5.022-5.141-8.255-3.783c-3.115,1.313-4.871,5.126-8.25,6.351c-4.678,1.703-9.43-0.188-14.256,1.55
	c-4.39,1.578-7.838,6.176-12.674,6.893c-8.575,1.271-10.658-1.333-18.666,3.791c-5.64,3.607-11.797,6.696-13.775,13.774
	c0.703-2.508-9.698-2.075-10.967-1.657c-3.352,1.112-5.718,4.302-7.978,6.883c-5.363,6.122-9.34,14.818-17.78,17.101
	c-2.841-9.387-9.058-15.456-19.078-14.716c-1.195-4.452-2.808-9.318-5.815-12.879c-2.657-3.146-8.311-3.924-10.362-6.529
	c-4.609-5.847-2.169-14.235-6.566-19.55c-2.515-3.031-7.212-3.238-10.002-6.126c-2.162-2.237-2.747-5.184-3.774-7.622
	c-3.089-7.342-5.326-9.287-12.604-12.825c-5.378-2.611-11.471-3.266-17.404-3.978c-6.64-0.798-12.281-1.449-18.213-4.45
	c-7.435-3.761-14.958-5.243-23.526-3.957c-13.812,2.074-23.237,6.112-37.16-1.151c-6.385-3.332-11.801-4.663-18.597-1.632
	c-11.27,5.024-28.738,9.128-37.356,18.69c-4.452,4.949-6.474,11.414-7.254,17.929c-1.32,11.04,5.529,26.526-10.063,29.448
	c-4.078,0.765-7.938-3.717-11.853-4.299c-3.948-0.586-7.334,1.328-11.307,0.388c-7.342-1.734-9.187-10.361-14.928-14.406
	c-6.766-4.771-15.8-6.531-23.793-7.529c-16.546-2.066-33.576,0.292-49.9-3.704c-8.061-1.974-14.322-6.953-22.904-6.579
	c-9.382,0.405-16.587,2.218-26.123,0.519c-25.855-4.609-49.599,18.859-60.552,41.613c-4.133,8.595-0.112,18.727-2.436,28.132
	c-1.745,7.061-6.635,11.928-9.474,18.719c-0.113,3.682-0.231,7.361-0.368,11.044l951.184,0.107
	C964.892,450.765,965.22,444.799,965.775,438.859"/>
<path id="path3973" inkscape:connector-curvature="0" fill="#28B057" d="M7.736,456.612l964.21,0.09l-2.836-70.725
	c-16.484,12.203-36.799,36.842-61.888,50.895c-3.866-4.438-6.168-10.092-10.716-14.082c-3.216-2.812-9.896-4.872-14.157-5.752
	c-2.566-7.055,1.194-14.641-2.486-21.954c-2.6-5.161-8.521-8.312-11.909-13.017c-3.479-4.824-4.082-10.033-9.629-13.813
	c-10.093-6.871-22.591-8.883-33.804-14.483c-11.445-5.723-17.61-17.727-31.941-18.611c-11.417-0.706-21.672,4.949-31.641,8.437
	c-10.767,3.767-22.788,3.914-34.235,3.637c-7.877-0.192-16.568-1.591-24.39-0.636c-10.766,1.315-8.194,4.032-14.503,11.245
	c-6.53,7.467-18.254,8.084-25.449,14.706c-6.315,5.809-11.267,13.848-11.776,21.892c-4.263-1.809-13.729,4.534-15.276,8.204
	c-3.04,7.223,1.09,13.383-7.307,19.088c-6.615,4.492-14.986,0.849-20.268-3.578c-5.189-4.35-5.438-11.518-9.002-16.845
	c-4.195-6.273-11.003-5.9-18.658-6.562c-8.093-0.701-9.962-6.928-14.856-11.673c-2.661-2.579-5.327-4.841-9.29-5.528
	c-4.168-0.729-8.541,0.638-12.721,0.067c-5.337-0.726-7.087-3.221-10.57-6.468c-2.514-2.34-5.983-5.144-9.832-3.783
	c-3.712,1.311-5.801,5.126-9.823,6.351c-5.57,1.7-11.229-0.188-16.978,1.547c-5.228,1.577-9.33,6.179-15.089,6.896
	c-10.209,1.268-12.695-1.333-22.227,3.787c-6.716,3.611-14.048,6.699-16.405,13.778c0.838-2.508-11.546-2.08-13.056-1.657
	c-3.992,1.112-6.811,4.304-9.502,6.883c-6.387,6.122-11.122,14.818-21.172,17.101c-3.383-9.39-10.781-15.457-22.718-14.714
	c-1.419-4.458-3.343-9.323-6.92-12.881c-3.169-3.146-9.901-3.924-12.342-6.529c-5.488-5.851-2.58-14.235-7.822-19.55
	c-2.994-3.031-8.587-3.237-11.906-6.123c-2.574-2.239-3.275-5.187-4.491-7.625c-3.683-7.34-6.349-9.29-15.015-12.824
	c-6.402-2.614-13.657-3.27-20.718-3.979c-7.912-0.798-14.629-1.449-21.691-4.45c-8.854-3.761-17.814-5.244-28.015-3.956
	c-16.442,2.075-27.67,6.111-44.249-1.151c-7.601-3.334-14.052-4.666-22.146-1.633c-13.417,5.023-34.219,9.13-44.482,18.69
	c-5.3,4.946-7.706,11.414-8.633,17.926c-1.574,11.043,6.581,26.529-11.987,29.45c-4.855,0.766-9.451-3.715-14.112-4.302
	c-4.703-0.582-8.734,1.332-13.464,0.392c-8.744-1.735-10.939-10.361-17.773-14.408c-8.057-4.767-18.817-6.529-28.336-7.527
	c-11.019-1.155-22.216-0.947-33.349-1.222C9.462,395.928,9.064,426.294,7.736,456.612"/>
<path id="path3977" inkscape:connector-curvature="0" fill="#634B34" d="M681.789,0.001c0,0-255.693,261.782-379.887,0
	C301.902,0.001,390.177,291.613,681.789,0.001"/>
<path id="path3981" inkscape:connector-curvature="0" fill="#634B34" d="M8.002,20.327c0.051,1.957,0.1,3.917,0.147,5.873
	c30.763,64.206,132.891,207.957,366.15-23.138C345.813,30.758,127.063,232.546,8.002,20.327"/>
<path id="path3985" inkscape:connector-curvature="0" fill="#634B34" d="M681.789,0.001c0,0,73.056,193.595,283.701,254.474
	C965.49,254.475,803.543,205.773,681.789,0.001"/>
<g>
	<circle fill="#FFFFFF" stroke="#000000" stroke-width="2" stroke-miterlimit="10" cx="449.475" cy="165.029" r="35.684"/>
	
		<line fill="none" stroke="#000000" stroke-width="2" stroke-miterlimit="10" x1="446.791" y1="199.925" x2="446.791" y2="351.318"/>
	<line fill="none" stroke="#000000" stroke-width="2" stroke-miterlimit="10" x1="446.791" y1="255.759" x2="513.36" y2="208.515"/>
	
		<line fill="none" stroke="#000000" stroke-width="2" stroke-miterlimit="10" x1="446.791" y1="255.759" x2="386.662" y2="207.441"/>
	
		<line fill="none" stroke="#000000" stroke-width="2" stroke-miterlimit="10" x1="446.791" y1="351.318" x2="495.107" y2="454.395"/>
	
		<line fill="none" stroke="#000000" stroke-width="2" stroke-miterlimit="10" x1="446.791" y1="351.318" x2="398.473" y2="456.542"/>
	<g>
		<path fill="#7CCEF2" d="M416.559,216.825l14.511,13.218c0,0,10.703,17.2,24.63,1.803c12.923-9.002,21.745-15.979,21.745-15.979
			l16.735,26.44l-22.796,20.259l2.248,51.173h-57.979l-0.595-51.156l-20.879-21.855L416.559,216.825z"/>
		<path fill="none" stroke="#000000" stroke-width="2" stroke-miterlimit="10" d="M416.559,216.825l14.511,13.218
			c0,0,10.703,17.2,24.63,1.803c12.923-9.002,21.745-15.979,21.745-15.979l16.735,26.44l-22.796,20.259l2.248,51.173h-57.979
			l-0.595-51.156l-20.879-21.855L416.559,216.825z"/>
	</g>
	
		<image overflow="visible" width="836" height="1216" xlink:href="uncflag.png"  transform="matrix(0.058 0 0 0.058 419.9487 241.8003)">
	</image>
</g>
<rect x="4.658" y="642.167" fill="#F7D277" width="964.898" height="493.354"/>
<path fill="#F7D277" d="M291.139,457.616h327.427c0,0,15.08,45.148,96.937,73.831c81.857,28.683,166.945,43.767,200.334,61.189
	c33.389,17.422,51.699,33.357,52.775,56.196c1.077,22.841,0,309.666,0,309.666H8.948V649.365c0,0-21.541-24.222,43.083-56.729
	c64.623-32.507,112.014-37.818,161.559-64.376C263.136,501.703,291.139,457.616,291.139,457.616z"/>
</svg>
